<svg version="1.1" viewBox="0 0 10 10" xmlns="http://www.w3.org/2000/svg"><rect x="347" y="328" width="266" height="55" rx="35.1" ry="27.5" display="none" fill="#fadcd2" stroke-opacity="0" stroke-width="1.24"/><g transform="matrix(.987 0 0 .987 -21.1 -79.4)" stroke-width=".107"><path d="m25.5 90.5c-1.4 0.1-1.9-1.4-1.2-2.8-0.5-0.3-3.1-0.6-1.9-2.1 0-0.2-0.7-0.2 1-1 2.9 0.7-0.1-2.5 1.7-3 0.5-1.6 1.9-1.1 2.2 0.4 0 2.3 2.9-0.8 3.1 1.4 1.1 1.8-2.9 1.8 0 3.4 0.3 0.9-0.4 1.9-1.1 2.7-2.2-1.4-2.5-2.2-2.7 0.2-0.2 0.4-0.6 0.9-1.1 0.8z" fill="#fad5c8"/><g transform="translate(-.0164 -.0032)" fill="#f39b8e"><path d="m25.1 90.5c-0.1-0.1-0.4-0.1-0.5-0.1h-0.4l-0.4-0.4v-0.7c0-0.4 0-0.9 0.1-1.1 0.1-0.6 0.2-0.6-0.2-0.5h-0.4l-1.2-0.6-0.2-0.3c-0.2-0.3-0.2-1 0-1.1 0.4-0.1 0.1-0.8 0.1-0.8l0.7-0.5h1.9l-0.5-0.9-0.1-0.6c0-0.3 0-0.8 0.1-1l0.1-0.4 0.7-0.1 0.1-0.4c0.3-0.7 0.9-0.7 1.7 0l0.5 0.4 0.2 0.7c0.2 0.7 0.3 0.8 0.6 0.6 0.1-0.1 0.4-0.3 0.7-0.3l0.6-0.1 0.3 0.1c0.7 0.2 0.9 0.3 0.9 0.9 0 0.1 0.1 0.3 0.2 0.5l0.1 0.3-0.1 0.7-0.4 0.4c-0.1 0.2-0.4 0.4-0.6 0.6l-0.2 0.2h0.1c0.4 0.2 0.8 0.7 0.9 1.1l0.2 0.5-0.1 0.4c0 0.2-0.1 0.4-0.2 0.4l-0.2 0.1 0.2 0.6-0.2 0.2c-0.1 0.1-0.4 0.2-0.6 0.3l-0.4 0.1-1.2-0.4-0.9-0.9-0.1 0.6c-0.2 1.1-1.2 1.9-1.9 1.5zm0.8-0.6c0.4-0.2 0.6-0.6 0.6-1.3v-0.5l-0.2-0.6c-0.2-0.4-0.3-0.7-0.3-0.8-0.3-0.3-1.7 1.4-1.8 2.2v0.5l0.2 0.5 0.6-0.4 0.2 0.3c0.2 0.3 0.2 0.3 0.7 0.1zm3.5-1.3v-0.4h0.1c0.1 0 0.3-0.1 0.4-0.2l0.3-0.3-0.2-0.3c-0.3-0.9-1.2-1.3-2.4-1.2l-0.7 0.1v0.4c0 0.5 0.2 1 1 1.6 0.9 0.9 1.4 1 1.4 0.3zm-4.6-1.9c0.3-0.1 0.6-0.2 0.7-0.2 0.3 0 0.6-0.3 0.6-0.6v-0.2h-0.3c-0.1-0.1-0.3-0.2-0.4-0.3l-0.2-0.3-1.3-0.3h-0.6c-0.2 0.1-0.5 0.2-0.6 0.3l-0.1 0.1 0.4 0.5h-0.2c0 0.1-0.1 0.1-0.1 0.2v0.2l-0.2-0.1c-0.5-0.1 0 0.6 0.6 0.9l0.4 0.2 0.5-0.1c0.2 0 0.6-0.1 0.8-0.3zm2.5-0.8c0.1-0.1 0.5-0.3 0.8-0.3 0.3-0.1 0.7-0.2 1-0.3l0.6-0.2 0.1-0.3c0.1-0.2 0.1-0.5 0.1-0.7v-0.4h-0.3v-0.3c0-0.1-0.1-0.3-0.1-0.4l-0.2-0.2-1 0.1-0.3 0.4c-0.3 0.4-0.7 1.2-0.9 1.7v0.3l-0.7 0.4 0.2 0.2c0.4 0.2 0.3 0.2 0.7 0zm-0.5-1.3c0.3-0.8 0.4-1.5 0.3-2l-0.1-0.5-0.5-0.4c-0.6-0.6-0.7-0.6-0.8-0.1l-0.1 0.5-0.8-0.1v0.9c0.1 0.9 0.1 1.2 0.7 1.8l0.4 0.5h0.3c0.4 0.1 0.4 0.1 0.6-0.6z"/><path d="m25.2 86c-1.1-0.2 0.8-0.9 0 0zm2.6-0.6c-1.1-0.2 0.8-1 0 0zm-0.3 1.6c-1.1-0.3 0.8-1 0 0zm-1.2-2.2c-1.2-0.3 0.7-1 0 0zm-0.4 3c-1.2-0.2 0.8-0.9 0 0z"/></g></g></svg>
