<svg xmlns="http://www.w3.org/2000/svg" viewBox="0 0 99.9 100"><path fill="#fadcd2" d="M37.1 32.6h26.6v13.7H37.1z"/><g stroke-width=".107"><path fill="#fad5c8" d="M25.484 90.497c-1.4.1-1.9-1.4-1.2-2.8-.5-.3-3.1-.6-1.9-2.1 0-.2-.7-.2 1-1 2.9.7-.1-2.5 1.7-3 .5-1.6 1.9-1.1 2.2.4 0 2.3 2.9-.8 3.1 1.4 1.1 1.8-2.9 1.8 0 3.4.3.9-.4 1.9-1.1 2.7-2.2-1.4-2.5-2.2-2.7.2-.2.4-.6.9-1.1.8m49.9-.3c-1.7.9-1.7-3.5-2.4-1.7-1.1 1.3-2.9 1.1-3.1-.6.4-1.7 1.6-1.9-.2-3.3.1-1 0-2.2 1.5-2 2.3 1.8 1.6.3 2.3-1.4.9-.6 2.3.2 2.4.8.4 1.4-2.1 3.4.8 2.3 1.7 1.1 1.2.7 1.3 1.1.7 1.6-2.2 2.4-2.1 2.1.3 1.1 1.2 2.8-.4 2.6zm-69.8-21c-1.61-.5.12-3.2.62-1.1.47.5-.14 1-.62 1.1m.76-3.3c-1.85.1-.43-2.6-1.1-2.7-1.72.3-2.81-1.7-1.68-2.6 1.62-.6 3.63 1.3 1.21-1.5-.43-1.8.52-2.5 1.88-2.4 1.66-.1.4 5.3 2.24 2 1.29-1.1 1.89.1 2.29.8.9 1.1-1.97 2.4-.3 3 1.5 1.2.5 2.2-.5 2.8-1.23.5-2.7-3.4-2.78 0-.42.8-.8.5-1.22.7zm.71-8.5c.23-.1-.22-.1 0 0m86.1 8.5c-1.2-2.1-.8-1.7-2.7-.5-.3-.8-1.7-.8-1.2-2.4 1.3-1.3 2.7-.9-.2-2.2-.4-1 .6-2.6 2-2.1 2.1 1.7 1-.1 2.4-1.6 1-.4 2.2-.6 2.1.9-1 2.4-1.3 2.7 1.6 2.8.7 1.3-.6 2.8-2.3 2.3-.1.5.3 2.8-.3 2.8zm-42.1-3.5c-3-.1-6.5.1-8.7-2.2-.7-2.1 2.2-2.7 3.5-3.4 2.1-1.7-1.6-1.3-2.7-1.6-2-.2-4-.8-5.9-1.2.5.9-4.4.7-4.5.4-2.1-5-4-10.2-6.6-15-1-.2-2.9 1.1-4-.1-1.8-2.6-2.9-5.9-4.1-8.8-.9-3.2.8-6.6 3.8-7.9 2-.7 4.5-2.6 6.5-1.2 1.8 3.4 2.7 7.2 4.3 10.6.9 1.8.6 4-1.4 4.8-2.2.9.6 3.1.8 4.7.6 1.5 1.1 3.2 2.1 4.6 2.3-.2 3-1.1 2.3-3.4-.2-2.4.4-5-.8-7.2-.6-2.9-.2-6.8 3-8.1.1-.8.6-2.6 2.2-2.4.1-.8.3-2.7 2.1-1.7.5 2.3.9 1.8 1.7-.8 1.4-1.4-2.2-1.7-1.9-3.5.6-1.1.5-2.1 1.6-3 1.3-1.1 3.8 2 3.4.2.1-1.4.9-3.1 2.5-2.3 1.1.6 2.9-.5 2.5 1.6-1.2 2.6.7 2 2.5 2.2 2.1-.4.9 1.2 1.5 1.7.8 1.3-1.6 2.5-2.6 3-1.1.1 1.6 2 2.3 1.8 1.6.7 3.6.3 4.8 1.6 2.9.7 4.7 3.7 4.2 6.6.3 1.9-.9 3.5-1.7 4.9.1 2.7-.2 3.1.1 8.2.2 1.4-3.7 9-4.6 9.2-1.8.5-3.8.4-5.7.9 0 1.8 2.5 1.7 3.5 2.9 1.9.6.2 3-1.2 3.2-1.6.5-3.2.8-4.9.7zm-11.8-22.5c.7-1.3 2.3-1.2 3.9-1.3 2.1-.1 4.3-.1 6.3-.3.4.4 1.8-.3 2.4.3 1.1 0 1.6-.8 1.3-.5.3.5 1.3.3 2.4.4 1.8.2 2.9-.4 4.8-.6.5-.4 1.4-.5 2 0 1.1-.8-1.6-1.5-1-1.5-.6-2.1-1.1-.4-2.1.5-1.4.4-3.2.2-4.2-.8-1.2 1.2-2.6 2-2.5 2.1-.4.5-.8-.4-2.7-.1.2.3-3.1-1.5-2.7-1.4-1.5.9-4.1 1.4-5.7-.1-1 .2-2.5 1.6-4.2 1-.2.7-.1 2.8.8 2.4-.2.7 1.8-.2 1.2-.1m22.7-3.3c.2-.2-.2-.2 0 0m-38.7-20.8c-2.8.3-.4-3.9-2.5-2.3-1.5-.2-2.3-1.8-1.5-2.8 3.4.1.5-.5 1.3-2.65.8-.97 2.6-.64 2.8.95.6-1 1.5-1.88 2.4-.87 1.2 1.19-2.1 3.17-.1 2.77 2.1-.2 1.8 2.3.3 3-2.7-1.9-1 .3-2 1.5-.3.4-.4.3-.8.3zm54.3-.2c-2.5.8-1.1-3-2.1-2.2-2.1 1.3-3-1.1-1.7-2.3 3.2.1-1.5-1.56.6-3.32 1.6-.61 2.3 1.11 2.4 1.23.8-1.92 3-1.26 2.8.23-2.2 2.66 1.3.38 1.5 2.36-1 1.4-1.3 1.8-2.8 1.2.2 1.1.7 3-.9 2.8zm-25.2 14.2c-.8-.7.6-.9 0 0"/><path fill="#d5d8c8" d="M65.384 41.897c.9-1.7.1-4.1 1.8-5.2.2-5.1-3.9-10.1-1.5-15.1 1.3-3.6 5.6-5.8 9.1-4 3.8 1.4 5.2 6.3 3.4 9.8-1.3 3.9-5.2 5.8-7.2 9.1-.5 1.5.4 3.2-.8 4.5-.4 2.7-1.8 5.3-2.3 8 .2 1.9-1.9 2.8-1.9 4.8-.7 1.7-.4 4.7-2.5 5.3-1.9.5-2.8-2-1.8-3.4.9-4.1 3.3-11.6 3.7-13.8m-2.6 10.6c.2-.1-.2-.1 0 0m.8-.4c.2-.2-.2-.2 0 0m0-2.3c.2-.1-.3-.1 0 0m3-1.7c.5-.1-.4-.1 0 0m.9-.5c.3-.1-.2-.1 0 0m-3.5-1.4c.7-.1-.6-.1 0 0m5.7-9.1c1.8-3.7 4.1-7.4 5.6-11.3.8-2.2.8-5.2-.7-7-.1 4.9-2.2 9.7-3.5 14.5-.4 1.3-1.3 2.8-1.4 4zm-1.6-.1c.8-4.5.7-9.5 2.3-13.9.2-1.7 1.9-3.4 1.9-4.9-3.3.9-4.3 5.1-4.6 8.2-.1 3.6.3 7.1.3 10.6zm.8 0c2-5.3 4.1-10.9 5.1-16.7.7-2.4-1.9-1.3-2.1.4-2.3 5.1-2.7 10.9-3.1 16.4zm3.9-3.8c3.2-2.9 6.7-7.3 5-11.9-.1-.9-2.8-3.8-2.2-2.2 2.3 5.1-1.1 10.1-3.4 14.3-.9 1.5.2.2.6-.2m-5.6-.4c0-3.6-.6-8 1.1-11.6.8-1.9 2.3-3.8 4.5-3.9-2-.3-4.7 1.2-5.9 3.2-2.7 3.6-.9 8.3.2 12.3v.1z"/><path fill="#f8cab7" d="M44.584 57.297c2.5-.6 2-2.5-.5-2.1-2.3 0-5.1-1.1-7-1.2 0 0-4.6-.4-4.8-.5-2-4.7-3.8-9.6-6.2-14-.6-.8-2.5 1-3.7 0-1.9-1.4-2.2-4.3-3.4-6.4-1.9-3.1-1.8-7.8 1.6-9.7 2.1-1.3 4.8-3 7.3-2.2 2 2.9 2.6 6.5 4.2 9.7.9 1.9 1.7 4.7-.8 5.8-2.2.6-.4 2.3.1 3.7 1 1.8 1.3 4.4 2.8 5.7 2-.2 2.7-1 2.2-3.2-.3-2 .3-4.2-.4-6.1-1.4-3.1-.9-8 2.7-9.4-.1-.8.7-2.3 2.1-2.3.5-.3.6-3.4 2.4-1.7.4 2.2.8 1.3 1.1-.4 1.9-1.6-.4-1.6-1.2-2.8-1.3-1.7.8-2.2.5-3.6 1.3-1.1 3.1-.4 4.2.6-.5-1.6.4-4.2 2.2-4.5.6 1.7 1.7 0 2.5 1.4 1.4.7-1 4 .4 3.4 1.3-.6 4.5-.5 4 1.6.9 1 .1 2.3-1.4 3-2.3-.1-.7 2 .6 2.1 1.5.9 3.7.3 4.9 1.7 3 .7 4.8 3.7 4.3 6.7 0 1.6-.5 3.4-1.7 4.5.3 2.8.3 5.7.2 8.6l-4.8 9.1c-1.8.5-3.7.4-5.6.8-.1 2 2.6 1.8 3.7 3.1 1.9 1.2-13.9-1-12.5-1.3zm-.3 1.2c.5-.1-.4-.1 0 0m9.1-7.4c-1.3-.5 0-1.1.9-.4-.1-1.3 1.6.8.7-.6 1.2.2 2.8-.9 2.4.5-1.5.3-1.1 0-1.8.1-2.9.2.6.3 1.7.2.6.2.3-1.3 1.5-1.3.8-.5.6-1.5.4-2.4.7-.5-.1-.5 1.4-1.5 0 1 .4-.6 1.5-.5.9-.4-.1 1 .3.2.3 2.6 1.3-1.2-.5-.2-5.8 1.7-20.7.7-22.1 1.2.9-.2.4 3.9.5 2.7.3.9 1.2-.3.6.7 1 .4 1.9.9 3.4.8 0 .4 1.3-.3 1.4.5-2 .5-1.9.2.5.5.6.2 1.3.1 1.9.1.8.4 5.1-1.1 5.3-.6m-10.1-5c-.5-.1.5-.1 0 0m-3.4.9c.2-.1-.2-.1 0 0m11.3-5c4 0 8.1-.5 11.9-1.8.1-1.8.1-3.7-2-4.2-1.2-2.1-.9 1-2.4 1.1-1.6.7-3.4-1.5-4.5-.3-2 1.9-5.3 1.8-7.1-.3-1.8 1.6-4.6 1.4-6.2-.2-.6 1.7-2.8 1.3-4 1.5-.4 2.1 1.2 3 3.1 3.3 3.6.9 7.5.9 11.2.9m11.7-2c-.2-.1.2-.1 0 0m-1 2.1c.3-.2-.2-.2 0 0m-10.9-4.6c1.9-.3 3.3-2.1 4-2.7.1 1 1.7-.3 1.9.7-1.7.8 2.4 1.5 2.5-.1.1-1.4.3-3.8 2.3-3.6 1.7-.9 2.7 3.1 3.1 1.5.3-2.5 0-5.6-2.7-6.5-1-1.1-2.4 1.6-2.2 1.6 1.5 1.2-.4 3-1.5 2.8-.1-1.8-1.1 1.8-2.6.7-.9-.5-.7-3.1-.8-2.3-1.1-.4-1.6-1.9-1.4-2.7-.8.2-1.4 1.7-2.8.6-1.2-1-1.5-2.8-3-.8-2.4-.3-2 3.4-3.5 3.1-1.6-1.7-1.2.6-3.1.7-1.9-.7-.1-2.5-2.1-2.9-1.4 1-3.3 2.8-3.1 5 0 1.8.3 5 2.7 4.3 1.5-.1 1.4-3.2 3-1.9-.6 1.7 1.6.7 1.2 1.6.9.8 3-.1.5-.1-1.2-.3-.7-1.9-.3-.5 1 .7 2 .1 2.3.1 0-1.5.9 1.3 1.3-.9-.4-3 .9-.3 1.5 1.1 1.3 1.3 1.3.7 2.8 1.2m-13.9-1.1c-.5-.5.2-.6 0 0m-.5-1c-.2-.2.2-.2 0 0m-.1-.3c-.2-.1.2-.1 0 0m.1-2.6c-.3.1.2-.5 0 0m21.4-1.2c-.6-.2 1.1-.3 0 0m-12.5 5.4c.5-.1-.4-.1 0 0m11-5.5c1.6 0 .7-3.6-.4-1.9-.6.4-.7 2.2.4 1.9m2.3-.9c3.9-1.1-2.7-4.3-.9-.8.2.4.7.8.9.8m-18.1-.7c1.4 1.6 2.1-3.1.6-2-.9.6-.9 2-.6 2m3.7-.1c.9 0 1.3-1.3.7-1.7-1.6-1.3-2.6-.7-2.1.4-.1 1.1 1.4 1.3 1.4 1.3m10.8-.5c2.5-.7.2-2.7-.9-1.8-.4.7.1 1.5.9 1.8m1.9-.7c1.1-.8-1.7-.7 0 0m-16.8-.6c2.5-.7.9-2.3-1.1-1.7-.1.6.3 1.6 1.1 1.7m18.1 0c1.7.5 2.3-3 .6-2-.4.4-2 2-.6 2m-15.8-.4c1.1-.8-1.2-.4 0 0m12.8.1c.5-.5-.5-.5 0 0m1.3 0c1.2-1 .1-2.4.1-2-.5-1.3-2 .5-.3 1.8l.1.2zm-.6-2.2c-.4-.1.5-.1 0 0m-10.9 1.7c-2-4.9-2.7 1.3-.9 0 .3 0 .7.2.9 0m6.3-.1c1.1-1.3 1.4-1 2.6-1 1-1.1-.1-2.5-1.2-3.2-1.1-.1-2.6-2.6-3-.6-.2 1.7 0 4 1.6 4.8m2-1.1c-.2-.1.2-.1 0 0m1.1.8c.5-.3-.7-.3 0 0m-12.1-.3c1.1-1 .4-3.2-1.1-2.8-.5.6-1.4 1.5.9 2.6zm4.4 0c2-.6 3-3.7 2.2-5.2-1.6.7-4.7.9-4.2 3.4 1.8 0 0 1.4 2 1.8m1.5-1.7c-.2-.2.2-.2 0 0m5.6-2.5c1.2-.1 2.6-1.3 2-2-1.9-.6 1.8-2.1-1-2-1.8-.6-3.3 1.5-4 2.8.9.6 2 .9 3 1.2m0-.2c-.5-.1.4-.1 0 0m1.2-2.2c-.2-.1.2-.1 0 0m.5-1.2c-1-.1 1.1-.1 0 0m-9.5 2.6c1.9.1 3.6-1 1.6-2.6-.6-.9-2.2-1.7-2.9-1.3 1.1.1.5 1.8-.7 1.4-1.6.4.6 2.3 1.5 2.5h.3zm3.8-.9c1.3-.9 2-2.7 2.1-4.4-.4-2.5-1.4.3-2.1-1.3-1.3-1.2-1.7 1.5-1.5 2.7.4 1 .7 2.4 1.5 3m2-4.2c-.3.1.1-.5 0 0m-44.6 21.8c-1.48-1.1-2.13-3.5-.58-4.6 1.88.7 1.92 2.1 3.38.8 2.1.5 1.7.8 1.4 2.3.5 1.5.8 3.3-1.1 2.7-1.41 1-2-2.5-2.97-1.2-.18-.2-.39.2-.13 0m84.8-.2c-1.2 1.2-2.9 2-3.9.5.6-1.6.3-1.6.2-3.1.7-2.1 3.5 1.2 3.6-1 1-1.7 3.9.2.1 3.3z"/><path fill="#edcb99" d="M51.084 62.297c-2.9 0-6.2 0-8.6-1.9-1.5-1.7 1.3-2.8 2.6-3.4 2.5-.9.5-2.1-1.4-1.8-2.1-.2-4.3-1-6.4-1.2-1.9-1.1-7.9-7.5-3.2-8 2.1-.2 2.8-1.1 2.3-3.3-.1-.6-.1-2.4 2.3-1.6s6.1.5 11.4 1.4c3.5.6 9.9-1.9 12.4-1.3 2.6.6 1.2 3.7 1.1 4.4.2-.4 3.7 2.1 3.7 2.1-.2 1.4.7 2.9-.7 3.8-1 .6-1.7 1.1-7.4 3-1.9.6-3.9.6-5.8.9-.2 2 2.6 1.9 3.6 3.1 1.9 1.3-.6 3.2-2.1 3.4-1.2.3-2.5.4-3.8.3zm-6.3-1.5c.3-.1-.2-.1 0 0m.9-.3c.2-.1-.2-.1 0 0m-1.7-.2c.2-.1-.2-.1 0 0m.3-1.8c.4-.1-.5-.1 0 0m.4 0c.4-.3-.3-.3 0 0m4.5-6.8c4-.1 8.2-.1 11.9-1.7 2.1-.7 2.3-3.1 2.4-4.7-13.8.9-25.4-.2-26.4-1.2.1 1.7-.1 3.9.7 5.3-1-.3 1.9 1.3 2.9 1.4 2.7.8 5.6 1 8.4.9zm-9.5-1.5c-.2-.1.2-.1 0 0m-6.4-2.1c.3-.1-.2-.1 0 0m33.3 0c.1 0 .2-.1.2-.1h-.3s0 .1.1.1m-30.2-.9c.3-.1-.2-.1 0 0m27.6-1h.2-.4z"/><path fill="#f4a895" d="M50.784 62.297c-2.8-.1-6.2.1-8.3-2-1.1-1.9 1.8-2.7 3.1-3.3 2.3-1.4-.3-1.8-1.7-1.8-2.2-.2-4.3-1.4-6.3-1.8l-3.4 3.4c-2.7-5.6-4.7-11.1-7.7-16.6-.3-2.2-2-.1-3.3-.5-2.6-.6-2.7-4.1-3.9-6.1-1.8-2.9-2.4-7.3.6-9.7 2.1-1.6 4.9-3.1 7.6-2.9 2 1.3 2.1 4.3 3.1 6.4.8 2.5 2.9 4.9 2.4 7.7-.7 1.6-4.2 1.8-2.3 3.7 1.2 2.4 2 5 3.2 7.3 1.8-.2 3.3-.4 2.6-2.7-.3-2.2.3-4.6-.4-6.7-1.1-2.2-1.1-5.2.2-7.4.9-1.4 2.9-1.6 2.6-3.2.3-1.6 2.5-.2 2-2.4.7-1.4 3.2-.6 2.6 1.1.8.4.7-2.5 1.8-3.2-1.4-.3-3-1.8-2.5-3.4 1.2-.4.6-2.8 2.8-2.1 1.5.2 2.6 2.1 2.2-.5 0-1.3 1.8-4 2.9-2.1 1.5-.5 2.5 1.3 2 2.8-1 2.4.6.6 2 .9 1.9-.4 2.3 1.4 2.4 2.5 1 1.2-1.7 3.3-3.1 2.8.3 1 2 2 3.5 2.2 1.7-.2 2.9.9 4.4 1.5 3.9 1.4 4.2 6.7 2.5 9.9-1.6 1.2-.3 3.4-.6 5.1.5 1.5-.8 4.1.5 4.7 2.3.5 2.7 1.2 3.5 2.7-.2 1.7.2 1.8-1.1 3.1-.9 0-3.5 1.6-7.5 3-1.9.6-4.2.3-6 1 .6 2 3.6 2 4.6 3.8-.6 2.8-4.8 2.9-7 2.8m-.2-.8c2.2-.1 5.3.2 6.5-1.9-1.3-1.5-4.1-1.7-4.5-3.6-.1-.1-1.6-.2-2.7-.3-1.8 0-3.4-.9-3.5 1.4-.8 1.1-3.1 1-3.5 2.3.8 1.9 3.6 2.1 5.6 2.1zm-6.5-.3c.2-.1-.2-.1 0 0m-1.7-1.8c.2-.1-.2-.1 0 0m7.2-4.7c5.5 0 11.3-.6 16.3-3.5 1.3-.6 2-2.2 1-3.2-.7-.7-3.5-2.3-3.2-.4.1 1.7-.9 3.3-2.6 3.4-5.2 2.2-10.9 1.5-16.4 1.5-2.7-.6-5.6-1.1-7.8-2.9-.8-1.1.5-4.1-1.6-2.8-1.7.3-3.7 2.6-1.6 3.8 3.4 3.1 8 4 12.4 4 1.2 0 2.3.1 3.5.1m0-2.9c4.2-.2 8.9 0 12.6-2.3.8-1.1 1.2-3.7.6-4.5-6.4 1.4-13.1 1.9-19.7.9-2.1-.4-4.1-.7-5.9-1.8.2 1.9-.2 4 .6 5.8 3.7 1.5 7.7 2.2 11.7 1.9zm-.1-6c4.6 0 9.3-.3 13.7-1.7.3-2.3 0-3.7-2.4-2.3-7.2 1.3-14.8 2-21.9-.4-1.5-.9-2.2-1.3-1.7 1-.2 2.1 2.8 2 4.2 2.6 2.6.6 5.3.8 8 .7zm1.9-3.6c4.1-.1 8.1-.7 11.9-1.8 0-1.8.3-3.9-1.9-4.3-1.3-2.6-1 1.1-2.9 1-1.6.7-3.1-1.6-4.2-.3-1.9 2-5.4 1.8-7.1-.4-1.7 1.6-4.5 1.7-6-.1-.8.8-2.4 2-4 1.3-.7 1 .2 3.4 2.1 3.4 3.9 1.1 8.1 1.1 12.1 1.2m-.1-4.6c1.7.3 2.6-2.2 3.9-2.1 1.4 1.2 4.1 1.6 4.7-.7.8-1.9 1.5 1.2 3 1.3 1.5-.1 1.1-.7 1.7-1.5 1.2-3.1.1-7.7-3.6-8.3.2 1.7-2.5 1.7-.8 2.6 1 1.3-1.3 3-2.2 1.6.1 1.9-2.9 1.5-2.7-.5-.1-1.1-2.1-.9-1.7-2.5.8-2-1.3 1-2.3.2-1.5.1-1.5-3.2-2.7-1.4-1.5.8-2.7 1.1-2.6 2.9-.7 2.6-3.3-1.2-3.5 1-1.6 1.3-2.6-1.1-2.3-2-1.3-1.3-2.6.6-3.5 1.8-1.1 2-.8 4.7.2 6.6 1.5 1.4 3.2-.3 4.2-1.4.9 2.3 4.2 2.5 5.7.9 1.1-1 2.3 1.9 4 1.6h.3zm5.1-6.3c1.4.1 1.6-2.4.2-2.6-.7.7-1.8 2.3-.2 2.6m2.5-.9c1.9-.2.6-2.2-.8-2.4-2.2.6.6-2-1.2-2.9-1.6-1-1.4 2-.2 2.4.6 1.3-2.4-1.9-2.7.2.1 1.9 2 1.3 2.8.8 1.3-.4.6 1.8 2.1 2zm-17.6-.6c1.4.1 1.1-3.6-.1-1.9-.7.4-1.2 2 .1 1.9m3-.4c2-.5.5-2.4-1.3-2.2-1.8-.9.3.6.1 1.8.4.2.7.7 1.2.4m-4-1.6c2.1-.6 1.7-2.2-.4-1.8-1.3-.2-.6 2.1.4 1.8m18 0c1.7.4 2.4-3.1.3-2-.3.6-2 2-.3 2m0-.4c-.8.3.8-.7 0 0m-13.5-.3c1.7.1-1.2-2.2-.6-2.1-1.2.6-2 2.2 0 2.1h.4zm6.7-.1c.9-1.8 1.6-.4 2.7-1.3 1-1.8-1.5-3.3-3-4-1.6-1.9-1.7 1.4-1.5 2.5.3 1.1.7 2.5 1.8 2.8m2.9-.4c.9-.3-.8-.3 0 0m-12-.3c1.4-1.2.2-3.4-1.1-2.5-1.1 1 .3 2.2 1.1 2.5m0-.5c-.8-.6.6-.8 0 0m4.2.5c2-.5 3-3 2.6-4.8-.4-1.3-2.6.7-3.7.8-1.9 1.5.1 2.1 0 3.1-.1.8.9.3 1.1.9m11.2 0c1.9-1.1-1-1.8-.1 0zm-38.4-.7c.2-.1-.2-.2 0 0m8.7-2.7c.2-.2-.2-.2 0 0m25.9-.8c1.5-.1 3.2-1.9 1.2-2.7 2.3-1.3-1-1.9-2.1-1.3-.4.9-3.4 2.4-1.7 3.1.8.4 1.7.8 2.6.9m-7.9-1c1.1-.1 3.9-.6 2.1-2-.8-1.3-2.7-3-4.1-2 1.6 1.4-2 1.4-.3 2.6.6.7 1.2 1.5 2.3 1.4m3.7-.8c1.4-1.3 3-4 1.6-6-1.2 1.7-1.7-1.4-2.6 0-1.3 1.8-.3 4.3.8 6zm7.1 6.8c-.8-.6.6-.8 0 0m-.8 1.2c-.7-.6.6-.9 0 0m.7 1.2c-.7-.6.6-.8 0 0m1.4-.6c-.7-.7.6-.9 0 0m-14.6-.9c-.7-.7.6-.9 0 0m.2-1.3c-.7-.6.6-.9 0 0m-2.3.3c-.7-.6.6-.9 0 0m.4 1.1c-.7-.6.6-.8 0 0"/><path fill="#c8b6ab" d="M64.584 45.797c.8-1.6.9-8 2.6-9-.2-2.3.2-2.1.2-1.1 0-1.4.2-2-.2-3.6-.2-4.8-.4-10.6 3.5-14 1.7-.3 2.1-1.2 3.2-.7 4.2 1 6.1 6.2 4.2 10-1.3 3.7-4.9 5.7-7 8.8-1 1.6-.1 1.9-.5 3.7-1.2 2.3-1.3 5.3-2.6 7.7-.4.5-6.5-1.8-3.4-1.7zm2.9 2c.6-2.3 1.8-4.7 2-7.1-1.5 0-3.5-1.3-3.4 1.2.1 1.4-1.8 3.9-.5 4.3.8 0 1.7 1.6 1.9 1.6m1.7-7.4c1.9-.4.6-3-1.2-2.7-1.8-.8-1.8 3.1.1 2.5.4.1.7.3 1.1.2m.6-3.1c1.5-2.4 2.6-5.2 4.1-7.8 1.9-3.2 3.2-7.8.8-11-.1 1.5-.1 1.7-.2 2.8-.8 4-2.1 7.6-3.2 11.6-.5 1.2-1.3 3.4-1.7 4.1l.1.3zm-1.2-.2c1.2-.2 2.1-3.9 1.7-3.3 1.7-4.2 3-8.6 3.9-13.1.7-1.9-.8-2.6-2-1.1 0 1.1-.6 1.8-1 3.2-.7 1.7-1 3.5-1.4 5.2 0-2.3-.1.7-.1 1.4-.6 4.6-.6 1.8-.5-.1.6-3.8 1.6-7.8 3.5-11-1-.6-2.5 1.1-3.2 2.1-2.9 5.1-1.3 11.2-1.4 16.8h.3zm.2-1.3c-.4-1.2.2-3.5.2-4.5.1-1 .5-.9.3 1 0 1.4-.4 3-.4 3.3v.2zm.6-4.7c0 .4.1-.7 0 0m.1-.8c-.1.3 0-1.4 0 0m5.1 1.4c2.8-2.8 5-7.4 2.9-11.2-.3-.7-2.1-2.6-2.1-1.8 2.2 4 .3 8.8-1.9 12.4-.2.8-2.3 3.1-1.3 3.3 0 0 1.6-1.7 2.4-2.6zm-4.8-5.3c.7-1.8-.5.7 0 0m.3-1c.1-.6-.2-.1 0 0m.1-.5c.2-.4-.3.2 0 0m3.6-6.8c.6-.5-.6-.4 0 0m-7.2 14.4c-.5-1-1.1-3.3-1.5-4.8-1.5-4.7 1.8-11.1 7.1-10.7.4.4-2.2.4-2.9.9-.4.5-2.1 1.7-2.7 2.7-2.3 3.4-1 7.6 0 11 .5 2 .7 3.4-.1.6 0-.2.8-1.2.1.4z"/><path fill="#d19985" d="M54.084 77.397c-2.5.3-4.6-2.4-4-4.9.3-3.4 2.3-6.8 5.4-8.3 2.6-.9 4.7 2.8 2.8 4.8-.9 1.4-2.4-.4-.7-1.1 1.2-1.4-.6-4-2.1-2.5-2.8 2.1-4.4 5.8-3.9 9.3.6 2 3 2.5 4.5 1.1 2.6-1.1 2.8-4.5 5.2-5.8 1.1 0 3.7-.6 3.8.6-.4 1.7-1.9 3.7-.9 5.4 2.7-1.6 2.7-5.3 3.7-8-.1-1.2 1.6-4.6 1.9-2-.9 2.1-1.8 4.9-2.3 6.8 1-1.4 2.5-2.1 3.8-3.1 2.7.1-1.3 2-2.1 2.7-.3.7.9 4.3 2 2.9 2-1.8 1.8-5.6 4.9-5.8 2-.5 2.6 2.4.7 3-1.2 1.1-3.7.2-3 2.7 1.4 1.2 3.2-1.1 4.2-2.2.9-1 1.7-2.2 1.8-3.5.6-1.2 2.6-1.5 3.1-.1-.2.7-3.5-1.1-2.3 1.9 1 .9 1.3 4.3 1.2 3.8 1-1.4 2.3-2.8 1.2-.2-1.2 1.5-4 2.2-5 .1.3-2.2 3 2.3 2.9-.5-.4-1.1-1.2-4.2-1.9-1.7-1.3 1.7-3 4.4-5.5 3.6-1.2-1.9-.9-1.6-2.3-.1-1.9 1-3-1.6-3.2-3.1-1.1.7-1 4-2.3 3 .5-2.2-.4-.2-1.2.5-1.9.8-1.5-2.9-2.6-.6-1.2 1.6-3.6.4-3.3-1.6-1 1.5-2.7 2.9-4.5 2.9m6.4-1.5c1.9-.7 2.9-3.2 3-5.1-2.4-1-4.2 2.6-3.6 4.7.2.1.3.6.6.4m18.8 0c.2-.1-.2-.1 0 0m-.5-1.3c.3-.1-.2-.1 0 0m-9.5-.6c.2-.2-.2-.2 0 0m5.1-.8c.2-.1-.2-.1 0 0m4 0c.2-.1-.2-.1 0 0m-4.2-.2c1-.4 3.5-1.3 2.5-2.7-1.3-.4-2.7 1.8-2.5 2.7m-35.9 3.8c-1.7-.1-1.4-2.9-2.6-.6-1.4 1.3-3.2-.3-2.7-2-.3 1.7-2.4 3.4-3.5 1.5-1.2-3.1 1.7-6 1.7-9.1-2.6.4-3.8 3.5-5.2 5.5-.9.8-1 4.1-2.5 2.7.1-4 3.2-7.4 3.1-11.4-1.5-.3-2.8 2-3.8 3.1-1.8 2.7-3.1 5.6-4.1 8.7-2-.4-.3-2.8-.2-4 .8-2.7 1.8-5.8.9-8.5-1.1-1.5-2.8.9-2.9 2.2 0 1.4-.6 3.8-1.4 1.3-.2-2.6 2.2-6 4.9-4.5 1.5 1.5.9 4 .6 5.9 1.4-2.2 3.4-5.5 6.6-5.2 1.6 1.2.4 3.7-.1 5.2-.6 1.8-1.5 4.1 0 1.2 1.1-1.7 3.3-3.9 5.4-2.7.5 3.2-2.3 6-2.3 9.2 1.2 1.8 2.3-1.1 2.8-2.2.7-2.1 2.6-3.9 4.8-3.2 2 .1 1.7 1.1.8 2.8-.5 1-1.5 4.2.5 2.9.8-1.4 2.3-3 2.3-4.4-.3-2.5 1-.8 2-.2 2.1-.3.6 2 .3 3-1 1.2-.2 2.9 1 1.3 1.6-1.4 1.6-3.9 2.8-5.4 1.6.5-.5 2.9-.6 4.2-1 1.7 1 2.6 1.8.8 1.1-2.3.8 1.2-.4 1.5-1.6.9-3.1-.1-3.2-.6-.7 1.5-3.6 1.2-3-.8.2-1.3 2.8-4.1 0-3.5-.8 1.5-1.7 3.6-2.8 4.8-.3.2-.6.5-1 .5m-3.5-1.1c1.7-.8 2.7-2.9 3-4.7-1.6-1.4-3.4.9-3.7 2.5-.1.7-.5 2.5.7 2.2m14.3-.6c.2-.1-.2-.1 0 0m-24.7-.1c.2-.1-.2-.1 0 0m-8.4-7.9c.2-.1-.2-.1 0 0m32.2 1.7c-2.1-.5 1.2-2.3 1.1-.5 0 .6-.7.4-1.1.5"/><path fill="#f39b8e" d="M54.284 77.497c-2.8.1-4.7-3-3.9-5.7.7-3.1 2.8-6.9 6.2-7.6 2.6-.4 3.9 3.4 1.8 5.1-2.5.8-.3-1.5-.1-2.6.1-1.8-2.3-2.2-3.1-.7-2.4 2.2-4 5.9-3.1 9.2 1.1 2.1 3.7 1.5 5.1.1 2.3-1.5 2.6-5.9 6-5.5 1.1.3 3.1-.3 2 1.6-.5 1.4-1.4 3-.8 4.5 1.9-.5 2.4-3.1 2.9-4.8.7-1.9.9-4.3 1.9-5.9 2.2-.3.1 2.6-.1 3.6 0 .9-2 4.5-.5 3.2 1.1-.6 2.7-2.8 3.8-1.9.1 1.6-3 1.5-3 2.8.4 1.1 1.1 4.1 2.4 2.1 1.7-1.7 1.7-5.1 4.5-5.5 1.8-.6 2.8 2 1.1 2.8-.8 1.4-3.4.4-3.3 2.1-.4 2.1 2.2 1 2.9.1 1.5-1.3 2.6-3.1 3-5 .8-1.4 3.7-1.3 3.2.7-1.5-1.3-3.6 0-1.9 2 1.2.4.2 4 1.4 2.3 1.2-2.7 1.5.1-.1 1.1-1.3 1.1-4.1 1.2-4.3-1 .9-1.2 2.6 2.4 2.9.1-.4-1.4-1.3-4.4-2.1-1.5-1.3 1.6-2.9 4.1-5.3 3.2-1.1-2.2-1.1-.8-2.9.2-1.8.1-2.2-2.2-2.7-3.2-1 .7-.7 3.5-2.1 3.1.2-2.9-.5.8-2.2.2-1.2-2.2-1.1-.4-3 .2-2.1.7-1.6-3.5-2.8-1.3-1 1-2.3 1.9-3.8 2zm6.4-1.7c1.9-.4 2.6-2.8 3.1-4.4-.3-1.8-3-.1-3.2 1.2-.4.9-1 3 .1 3.2m13.6-2.8c1.1-.2 4.1-1.9 2.1-2.7-1 .1-2.1 1.9-2.1 2.7m-30.6 3.9c-2.5-.5-.7-3.3 0-4.7.2-1.9-2.4 0-2.2 1.5-.8 1.3-2.1 4.2-4 2.6-.5-2.6-1.3 1-2.9.4-1.9-.2-.8-3.8-2-.9-1.3 2.1-4-.3-3-2.2.4-2.4 1.9-4.5 1.9-6.9-2.5.4-3.7 3.3-5.1 5.3-.9.8-.9 3.9-2.4 3-.6-2.1 1.1-4.4 1.7-6.4.5-1.7 1.7-3.6 1.1-5.4-2.4.9-3.8 3.5-5.1 5.7-1.2 2-1.8 4.3-2.8 6.4-2-1.1.2-3.4.2-5 .6-2.5 1.8-5.5.5-7.9-2-.8-2.8 2.2-3 3.7.7 2.4-2.1.5-1.1-.9.1-2.5 3.1-5.3 5.3-3.2.9 1.5.4 3.9.3 5.5 1.3-2.4 3.5-5.6 6.7-5.1 1.6 2.1-.4 4.7-.9 7-.9 2.3.6-.9 1.2-1.4 1.1-1.4 3.1-3.1 4.9-1.8.2 3.2-2.3 5.9-2.5 9.1 1.5 1.8 2.4-1.3 3-2.5.6-2 2.9-3.9 5-2.8 2.1-.4.9 1.6.4 3.1-.8 1.1-.9 4.1.8 2.2.6-1.5 2.6-3 1.9-4.5.3-2.5 1.2-.2 2.2.1 2.5-.1.1 2.8 0 4.1-.1 2.2 2.2-.5 2.5-1.5.8-.9.6-4.4 2.2-3.4.1 1.8-1.7 3.7-1.3 5.7 1.3 1.2 2.8-3.4 2.7-1-.3 1.8-3.5 3-4 .8.2-.8-1.4 1.6-2.1 1.3zm-8.8-1.2c1.9-.5 2.9-2.8 3.2-4.6-1.8-1.6-3.8 1.6-3.7 3.4-.1.4-.2 1.5.5 1.2m13.9-6.9c-1.9.2-.2-2.3.9-.9.4.5-.3 1-.9.9m2-6.6c-2.7-.1-6 0-8.1-1.8-1.4-1.2.7-2.8 1.9-3.1 1.2 0 3.1-2.1 1.1-1.9-2.8-.3-5.7-1-8.3-1.6.2.2-3.3 3.2-3.3 3.2-2.7-5.6-4.6-11.4-7.6-16.9-.2-2.4-1.9 0-3.4-.5-2.6-1.1-2.7-4.5-4-6.6-1.9-3.1-1.9-7.8 1.5-9.7 2.2-1.2 4.7-2.9 7.3-2.3 2 2.7 2.4 6.4 4 9.4.9 1.9 2.1 5-.5 6.1-2.5.6-.2 2.7.2 4.2.8 1.7 1.3 3.6 2.3 5.3 1.8-.3 3.4-.4 2.6-2.6-.2-2.2.3-4.7-.4-6.8-1.4-3-1-7.6 2.3-9.1 1.2 0-2.1 1.7-2.1 2.8-.8 2.1-.7 5 .9 6.5 1.6.9 2.6-.9 3.9-1.3 1.5 2.1 4.5 1.6 6.1.4 1.2.4 2.4 1.9 4.1 1.7 1.6-.1 2.5-2.1 3.8-2.2 1.3 1.1 4 1.7 4.6-.5.7-1.1 1-.9 1.9.6 1.8 1.2 3.3-.1 3.2-2 .8-3.1-.6-6.9-4-7.3.1 1.8-2.4 1.5-.5 2.8.6 1.6-1.8 2.3-2.5 1.5-.1 2.2-3.4 1.4-2.6-.6-.9-.4-1.8-1.3-1.7-2.6 1-1.9-1.3.8-2.2.3-1.6-.1-1.7-3.5-3-1.3-1.9.4-2.4 1.5-2.6 3.1-.7 1.1-2.4.4-2.8-.4 0 1.3-2.7 1.9-2.8.1 1.1-1.6-1.5-.9-1.4-2.6-.2-1.6 1.9-1.2 2.1-1.9-.3-1.8 1.9-2.3 2.7-1.1-.2 2.4.9.9.9-.6 1.9-1.6-.1-1.6-1-2.7-1.8-1.6.7-2.2.1-3.5 1.2-1.5 3.4-.6 4.5.6-.5-1.7.2-4.5 2.1-4.7.6 1.6 2.5-.1 2.7 2 .3 1.4-1.5 3.6 1 2.4 1.4-.1 4.1.3 3 2.2 1.8.9-.6 2.6-1.6 3.1-2.4-.5-.2 1.8.8 1.7 1.6.9 3.8.3 5.1 1.8 3 .6 4.7 3.7 4.3 6.6-.1 1.6-.5 3.4-1.8 4.4.3 2.9.4 5.9.2 8.8 2 .3 4.7 1.7 4.1 4.2-.2.7-.6 1.2-1.4 1.9-.9.4-2.5 1.3-3.5 1.7-.9.6-2.6.6-4 1.2-1.8.6-4.1.2-5.7 1 .4 1.8 2.7 1.7 3.8 2.9 1.9 1.1-.4 3.1-1.7 3.2-1.5.4-3.1.6-4.5.5zm-.2-.8c2.2-.1 5.3.2 6.5-1.9-1.2-1.5-4.1-1.8-4.4-3.6-.1-.1-1.7-.2-2.8-.3-1.7 0-3.4-.9-3.4 1.3-.8 1.2-3.2 1.1-3.6 2.4.9 1.9 3.7 2.1 5.7 2.1zm-6.5-.3c.2-.1-.2-.1 0 0m-1.7-1.8c.2-.1-.2-.1 0 0m7.2-4.7c5.6 0 11.3-.6 16.3-3.6 1.3-.5 2-2.1 1-3.1-.7-.7-3.2-2.1-3.2-.7.1 1.5-.5 3.5-2.2 3.5-5.3 2.3-11.1 1.7-16.8 1.6-2.7-.6-5.6-1.1-7.8-2.8-.8-.8.5-3.9-1-3-1.6.2-4.4 2.3-2.4 3.7 3.4 3.3 8.1 4.3 12.6 4.2 1.2.1 2.3.2 3.5.2m-1.3-2.9c4.3-.1 9 .1 13-1.7 2.1-.8 1.7-3.4 1.8-5.2-6 1.3-12.3 1.8-18.5 1.2-2.5-.5-5.1-.7-7.4-2 .1 1.9-.2 4.1.7 5.8 3.3 1.4 6.8 2 10.3 1.9zm1.2-6c4.5 0 9.1-.3 13.4-1.5.3-.8.9-4.4-1.2-2.8-6.7 1.5-13.9 2-20.7.6-1.4-.2-2.9-1-3.9-1.6-.3 2.3.3 3.9 2.7 4.1 3.1 1 6.4 1.2 9.6 1.2zm.6-3.6c4.4 0 8.9-.6 13.1-1.8-.1-1.8.2-3.9-2-4.3-1.2-2-.8-.2-2.1.8-1.5.6-3.1 0-4.4-.8-1.8 2.6-5.8 2.7-7.7.4-1.7 1.6-4.7 1.4-6.1-.4 0-.3-1.3 2.2-2.8 1.7-2-1.3-1.5 2.5-.2 2.7 3.8 1.6 8.1 1.4 12 1.7zm-26.5-2.9c2.5-.3 2.3-2.4.9-3.8-.8-1.5-1.3-2.9-2-4.5.3-.9.3-2.6 1.8-2.8.9-.5 2.4-.8 3.1-1.3.7 2.1 1.2 3.6 2.5 6.3-.4 5.2 3 1.1 2.2-.3-.5-1.5-.9-2.9-1.8-4.5-.6-1.8-1.5-4.2-2-5.5-.3-1.6-2.2-1.4-3.4-.8-1.6.9-4.2 1.6-4.9 2.9.1.4-1.3.5-1.3 2.3-.7 2.4.6 4.6 1.5 6.8.2 0 .9 2.5 1.4 3.6.4 1 1.1 1.4 1.9 1.6zm32.9-8c1.7-.1.7-3.9-.6-2-.9.4-.6 2.3.6 2m2.2-.9c2.1-.3.5-2.5-1-2.4-1.4.6.5-2.3-1-2.9-1.6-1.2-1.3 2-.1 2.4.7 1-3.5-2-2.6.6 0 1.1 2.2 1.3 2.2.4 1.6-.8.9 1.5 2.5 1.9m-17.5-.5c1.5-.1 1.1-3.8-.2-1.9-.7.6-1 1.6.2 1.9m3-.5c1.4-.3 1.6-2-.3-2.1-1.1-.6-2.7-.4-1 .3-.2.9.1 1.9 1.3 1.8m-3.9-1.7c1.9-.4 1.9-2.2-.3-1.7-1.4-.4-.9 2.1.3 1.7m17.9.1c1.4.4 2.7-2.3.9-2.3-.5.2-2.6 2.3-.9 2.3m-13.3-.7c1.7.2-.7-1.3-.7-2.2-1.9 1.3-1.6 2.2.7 2.2m6.5-.2c.9-1.8 2.3 0 2.8-1.6 1.1-.8-1-2.7-2-3.1-1-.3-2.4-2.3-2.4-.3-.4 1.7 0 4.2 1.6 5m-.6-4c-1.2-.2.8-.9 0 0m3.6 3.6c1.1-.2-1-.2 0 0m-11.9-.3c1.3-1.1.3-3.7-1.2-2.5-.9 1.1.3 2.3 1.2 2.5m4.2.1c2-.5 3.1-3.1 2.5-4.9.3-1.4-2.1.6-3.1.6-1.6.4-1.7 2.9-.4 2.8-.6 1.5.6.7 1 1.5m1.9-3.8c-1.4-.6 1.3-.9 0 0m5.3-.4c1.1.1 3.5-1.7 1.8-2.4.4-1.1.7-2.1-1.7-2-1.1.4-3.3 2.3-3 3.3 1 .4 1.9 1.1 2.9 1zm-1.8-1.3c-.8-.5 1.3-.5 0 0m-6 .3c.9-.2 3.8-.4 2.4-1.6-.8-1.6-2.6-3.3-4.3-2.6 1.5 1.6-2.2 1.6-.2 2.9.5.7 1.1 1.4 2.1 1.3m1.3-1.1c-.8-1.2.7-.1 0 0m2.5.2c1-.3 1.4-1.9 1.9-3 .7 0 .4-2-.2-2.8-1.1 1.2-1.8-1.2-2.6-.4-1.5 1.9-.3 4.6.6 6.2zm-.1-1.1c-.9-.5 1-.5 0 0m0 0c-.9-.5 1-.5 0 0"/><path fill="#cfa87a" d="M50.884 62.297c-2.7 0-6 0-8.1-1.8-1.4-1.1.6-2.8 1.9-3.1 1.1 0 3-2.1 1-1.9-2.8-.3-5.7-1-8.3-1.6-1.6.1-9.3-4.6-3.3-7.8 1.7-.5 4.2-1 7-1.1 2.9 0 5.8-.2 8.9-.2 3 0 6.1 0 8.5.2 2.5.2 4.4.4 5.4.7 2 .3 4.7 1.8 4.1 4.2-.2.7-.6 1.2-1.4 1.9-.9.4-2.5 1.3-3.5 1.7-.9.6-2.6.6-4.1 1.2-1.8.7-4 .2-5.7 1 .4 1.8 2.7 1.8 3.9 3 1.9 1.1-.4 3.1-1.8 3.2-1.4.4-3 .5-4.5.4m-.2-.8c2.1-.1 5.2.2 6.5-1.9-1.3-1.5-4.2-1.7-4.5-3.6-.1-.1-1.6-.2-2.8-.3-1.7 0-3.4-.9-3.4 1.4-.8 1.1-3.1 1-3.6 2.3.9 1.9 3.7 2.1 5.7 2.1zm-1-6.8c5.5 0 11.3-.6 16.3-3.6 1.3-.5 1.8-2.1.8-3.1-.4-.4-1.1-.7-1.7-1.1-.5-.3-1.1.1-1.1-.6 0-1.2-1.8-.7-2.4-1-.7-.2-1.5-.2-2.3-.3-3.1-.2-6.3-.2-9.6-.1-3.4 0-9.6 0-11.9.4-2.5.5-.8 1.1-1.6 1.2-1.6.2-4.5 2.4-2.5 3.8 3.3 3.3 8.1 4.3 12.6 4.3 1.1 0 2.3.1 3.5.1z"/><path fill="#c8b6ab" d="M65.984 53.597c-.7 1.9-.5 5.4-3.1 5.4-2.3-.7-1.2-3.5-.6-5.1.1.8.3.6-.3 2.9-.5 1.6 1.3 2.5 2.2 1.1.9-1.9 1.3-4 2.3-5.9-1 .4-1 1.7-.5 1.6m-4.7-3.6c2.1-.8-4 1.8 0 0"/><g fill="#cc9553"><path d="M32.584 54.797c-2.1-5.2-4.1-10.5-6.8-15.4-.8 0-2.7 1.2-3.8.1-1.1-.9-1.8-3.4-2.1-3.9-.6-1.2-.9-2.5-1.5-3.4-1.7-3.1-.6-7.5 2.7-9 1.6-.9 2.9-1.3 4.4-1.8.5 0 1.9-.7 2.7.7.8 1.3.9 2.2 1.4 3.5.4.7.7 2.5 1.2 3.1.8 1.9.8 2.1 1.5 3.7.6 1.1.4 3.1-.1 3.5-1.4 1.1-3.3 1.8-1.5 3.7 1.3 2.1 1.7 5.2 3.3 6.9-.1.1 0 .2-.4.5-1.2-.1-2.5 2.1-1.4 3.3.6.8.7 1.7 3.1 2.9 1.1.7 1.8.5 2.1 2.3 1.6 6.5-2.8 3.8-4.8-.6zm-9.3-15.3c2.3-.4 4.5-1.7 6.6-2.7-.5-3.1-1.7-6.2-2.7-9 1 1 1.5 3 2.1 4.4.4 1.4.8 3.2 1 4.4.7-.8 2-2 1.8-3.2-1.3-3.6-2.7-7.1-4.1-10.7-1.2-2.1-3.8-.1-5.4.5-2.7.9-4.6 3.4-4.3 6.3.4 3 2.2 5.6 3.1 8.5.3.8 1 1.6 1.9 1.5m-5.2-8.4c.3-.2-.2-.2 0 0M49.884 99.997c-1.5-1-.9-3.1-.3-4.5-1.6.6-4.2 2.2-5.5.2.3-2.3 3.1-2.5 4.7-1.4 1.3 1.3 1.5.1.9-.5-.1-1.1-1.4-2.7-.2-4.1 1.6 0 1.2 2.6.7 3.6-.1 2.3 2.3-.2 3.6.3 1.2.3 3 2.3 1 2.9-1.6.5-3.2-.3-4.4-1.2.2 1.5 1.5 3.4-.2 4.6l-.1.1zm.4-1c1.1-.7-.6-4.3-.7-1.8-.5.5.2 2.8.7 1.8m-4.4-2.8c.9.3 4.6-1.3 2.2-1.7-1.2-.8-3.5-.5-3.5 1.3.4.2.8.5 1.3.4m7.9 0c2.5.3.9-2.7-.8-2-.9 0-3.4.5-1.5 1.3.6.4 1.5.8 2.3.7m-4-.9c.2-.1-.3-.1 0 0m.2-3.1c.9-1.1-.8-2.7-.5-.5.1.1.3 1.4.5.5m-12.3 5.7c-1.2-.5 1.3-2.2.7-.7.1.3-.3.8-.7.7m23.8-.1c-1.9-1.1 1.2-1.7.2 0zm-21.1-2.3c-1.2.3-2.9-.5-3.8-.8-1.2 0-3.2-2.6-4.9-1.2-1 .7-3.5 1.3-3.9-.4 1.2-2.5 4.2-1.3 6.2-.5-.9-1.5-1.9-3.8-.1-5 1.5-1.7 2.2 1.2 1.1 2.2-1.7 1.8.4 4.2 2.3 4.8 1.5.7 3.2.7 4.8.6-.5.3-1 .3-1.7.3m-11-2c.9-.1 4.3-.9 2-1.3-.9-.7-4 .7-2.3 1.3zm4.5-2.1c-.2-1.4 1.6-2.3 1-3.8-1.4.5-2 2.6-1 3.8m25.5 4.1c-2.1.1-3.1-.6-.3-.4 2.5.2 5.5-1.3 6.3-3.9-.3-1.4-2-2.9-.9-4.4 2.7.1 2.9 3.9 1.3 5.4 1.8-.7 4.6-2 5.9.4.1 1.9-2.9 1.4-3.9.7-1.8-1.7-3.3 1.3-5.2 1.5-1 .6-2 .7-3.2.7m10.9-2.1c1.7-.8-.9-2.3-2-1.7-2.5.4.2 1.6 1.3 1.6.2 0 .5 0 .7.1m-4.3-2.8c1.1-1-1-4.5-1.3-2.3.3.5 1.2 3.2 1.3 2.3m-17.5 2.4c-.6-1.4-1.7-2.7-2.9-3.8-1.7-1.2-5.1-1.5-5.4 1.2-.5 1.8 2.4 2.6 2.4.7-2-1.1 2.1-.5.3 1.2-1 1.2-2.9.4-3.1-1.1-1.1-2.9 3.3-4.4 5.3-3 1.6 1.1 3.6 2.6 3.4 4.8m3.3-.2c-.8-.7 1-3.1 2-3.9 1.9-1.8 5.9-1.8 6.5 1.2.3 1.9-2.7 3.9-3.7 1.7-1-1.5 2.5-1.5.9-.8-1 1.6 2.6 1.1 2.3-.7-.6-3-4.5-2.3-6-.4-.9.8-1.6 1.8-2 2.9m-29.9-7.2c-.9-1.5-3.2-2.7-5.2-2.1-2.2 0-3.4 3.5-1 4.4 1.3 1.2 3.1-2.3 1.2-1-.7-1.8 2.6-.5 1.4.9-1.8 2.3-6.1-.5-4.3-3.1 1.3-1.7 2.9-2-.1-3-4.32-1.7-8.04-7-6.26-11.7.32-1.6 3.16-3.5 3.86-1.3.4 1.5-2.65 3.1-2.56 1 1.36 2.1 2.46-2.3.44-1.2-2.6 2.8-1.66 7.4.82 9.9 1.1 1.3 2.8 3 4.2 3.2-1.3-.7-1.7-1.7-2.6-2.4-1.1-1.6-1.4-5.5 1.2-5.2 2.1 2.1-2.4 1.2-1.5 2-.4 3.6 3.5 5.8 6.2 6.6-1-1.2-1.6-4 .4-4.5 1.7.4-.5 2.9.2 4 .9 1.1 2.7 1.8 3.6 2.8 0 0 1.2 1.3 0 .8zm-4.3-4.5c1.1-1.5-.3-3.7-.4-.9 0 .2.1 1 .4.9m-5.4-6.2c2-.4-1-1.1 0 0m-.7-.3c.2-.1-.2-.2 0 0m68.4 8.5c2-.4 2-2.6 1-4.1-.3-2.1 2.2-1.2 2.2.2.9 1.2-2.5 4-.3 3.1 2.8-1.2 6-3.5 5.3-7.1-1.6 1-2.9-1.6-.8-1.6 1.7.4 1.5 3.2 1.1 4.6-.3 1-4 3.8-1.7 2.5 2.5-2.1 5.4-4.9 5.2-8.5-.4-1.5-.5-3.9-2.4-4.1-1.1 1.2.8 2.6 1.2 1.2.8 1.9-2.2 1.2-2.4-.2-.3-2.2 2.8-1.9 3.3-.2 1.4 2.3 1.1 5.3-.2 7.6-1.6 3.1-4.6 4.9-7.7 6.2 1.5.8 3.3 2.7 2 4.7-.9 1.9-4.9 1.7-4.5-.9.8-2.1 2.9 1.4 1-.1-1.2.7 1.1 2.3 2.1 1.4 2-1.1 1-4.2-1.2-4.3-1.9-.7-4.1 1.2-5.2 1.7-.9-1 .6-.9 2-2.1m2.4-2.8c.9-2.3-1.7-2.2-.3 0 .1.6.2.1.3 0m4.9-5.4c2.1-.8-1.9-1.2 0 0m-49 12.1c-1.9-.9 2.5-1.6.3 0zm23.1-.1c-1.6-.7.5-1.8.3-.4.6-.9.4.6-.3.4m-56.1-17.7c-1.76-.6.91-2.9-.18-.8.3.5 1.46-.1.18.8m89.2-.3c-1.9-.1 1-2.8.7-.5-.2.2-.2.8-.7.5m3.2-9c-.7-.2 1.7-2.5 1.6-3.8.3-1.8.5-4.4-1.3-5.5.6 1.2-.5 3.3-1.3 1.3.7-1.1.9-2-1-2.4-2-.2-4 1.4-4.4 3.3-.6-1.7.3-3.7-.9-5.2-1.2-2.2.8-2.1.7 0 .6 2.2 1 1 1.8-.4 1.9-2.8 2.7-7.5-.4-9.7-.9 1-2.6 2.4-4 1.2-.7-1.3.9-2-.1-3.2 0-1.7 2.1-1.7 3.1-.7.3-1.8 3.1-2.5 3-.2.4 1.5-2.4 2.1-.5 3.2.9 1.1 1.4 3.1 1.5 4.2 1.5-4.2 2.4-10.1-1.4-13.2-1.8-1.7-5.5-1.9-6.7.3-.1 2 2.1.6.6-.1 1.9-.5 1.8 2.6 0 2.3-2.1 0-2.3-3-1.2-4.3.4-2.2 1.8-5.5-.7-6.8-.6-1.9 2.1-1.2 1.5.4.6 1.6.4 3.4 0 5.1.5-.4 1.3-2.9 1.2-4.2.3-3.3-2.7-7.1-6.1-6.3-2 .5-.2 3.4.6 1.5-1.5-1.5 1.3-.8.3.6s-3.2-.1-2.5-1.7c1-2.5 4.8-1.6 6.1.4 2.9 2.7 3 7.6.7 10.8-.1 1.3 2.5-.9 3.7 0 4.5 1 6.4 6.5 5.7 10.7-.5 4.1-2.4 7.6-4.4 11-1.5 2.4-.6 1.7 1.1.6 2.8-.6 6.1 1.3 6 4.5.1 2.4-.5 5-2.3 6.4zm-.2-7.6c.9-1.4-1.1-1.1 0 0m-7.7-13.6c1.8.1 3.2-2.4.6-1.9-1.9-.7-2.7 2.1-.6 1.9m2.1-2c.4-1.5-1.9-2.8-3.1-1.8-.4 2.1 2 1.1 3.1 1.8m.8-.4c1.9 0 1.7-4-.1-2.3-.9.4-.6 1.9.1 2.3m-5.7-16.4c-.1-1.3-1.4.1 0 0m-84.6 39.6c-1.28-.3-2.02-2.4-2.12-3.7-.591-2.7.42-5.6 3.03-6.7 1.73-.5 3.6 0 4.97 1.2-1.57-4.2-4.9-7.6-5.24-12.2-.77-4.3.62-9.6 4.96-11.1 1.44-.7 3.5 0 4.6.5-2.53-3.6-2.3-9.1 1-11.9 1.3-1.8 5.1-2.3 5.7.4.4 2.1-3.3 2.5-3 .3 1.9-2.1-.3 2.3 2 .6.7-2.3-2.6-2.2-3.8-1.3-3.4 2.3-3.9 7.5-1.7 10.7-.4-1.9-.7-4.1 0-5.9-.5-1.5 2.1-2 1.5-.3-2 .8-1.4 3.5-1.3 5.2 0 2 2.1 3.7.6 5.6-1.2 1-3.73.1-2.5-1.5 1.9-1.2 0 .3.9.8 1.9.1.4-2.7-1-2.6-3.15-.8-6.47 1.6-7.1 4.8-1.12 3.6-.35 7.6 1.28 10.9-.21-2.1.32-4.2 1.82-5.7.4-.7 1.32-1.7 1.17-3.1-.41-1.6-2.68-.7-2.14.9.12 1.3 1.61 2.7-.06 1.1-1.23-1.3.37-4.6 2.03-3 .65 1.7 1.3.3 2.6.3 2.5-.4.8 2.1 1.1 2.9 1.3.9.4 3-1.2 2.5-1.91.7-2.2-2.8-3.66-.5-2.6 2.8-.51 6.8 1.22 9.5.85 2.2 1.08-1.8 1.71-2.4 1.73.1-.93 2.7-.69 4 .41.7-.04 4.4-.4 2.2.27-1.9-1.79-1.5-2.97-2.5-1.66-.4-3.38 1-1.98 2.3-.27 1.5-1.93 1-1.49-.3.94-1.8-1.54.5-1.42 1.4-.856 2.2.89 4.8 1.62 6.6zm.34-7.2c1.27-.9-.7-2.1 0 0m8.16-13.5c1.9-.1.1-3.1-1.27-1.8-2.31.9 2.77-2.5 1.57-1.2 1.6-1.9-2.33-1.8-2.57-.3-.66 1.5.06 2.6 1.42 3.2.35.1.55.1.85.1m2.6-18.8c1.6-1.1-.8-.6 0 0m81.7 34.3c-2 0-.7-3 .5-1.3 0 .5 0 1.1-.5 1.3m-.4-.4c1.8-1.3-1.7-1.2 0 0m-89.3.2c-2.14-.1 1.09-2.9.61-.6-.04.3-.32.5-.61.6m-.24-.4c1.6-1.1-.98-.8 0 0m88.9-4.9c-.7-1.2.8-2.9 1.8-3.8 1.3-.7 3.1-.3 2.3 1.5-.3 1.6-2.1 1.7-3.5 1.8-.2.1-.3.6-.6.5m.5-.9c1.3-.5 3.2-.3 3.3-2.2-.2-1.3-2.8.1-3.1 1.2 0 .3-.5.9-.2 1m-86.4-3.7c-1.24-.8 1.8-2.3 1.03-.7-.31.4-.64.4-1.03.7m.68-.7c.61-1-1.37.1 0 0m82.6.6c-2 .2-.3-2.6.6-.6.1.3-.3.7-.6.6m-.3-.5c1.5-.6-1.2-.8 0 0m-89.5-1c-2.22-.4.47-2.4.54-.3-.19 0-.28.4-.54.3m-.2-.4c.46-.3-.44-.3 0 0m97.2.3c-1.9-1.1 2.4-1.8 0 0m-84.9-16.6c-.9-.4.3-2.8 1.2-3.5.9-1.3 4.3 0 2.4 1.4-1.3.5-3.2.3-3.6 2.1m.6-1.7c1-.4 4.2-1.1 1.8-1.8-.9 0-1.8 1.4-1.8 1.8m72.3 1.9c-.5-1.3-1.7-2.3-3.1-2.1-2-.7.2-3.1 1.5-1.9 1 1 2.3 2.6 1.6 4m-.9-2.1c.2-1-2.4-2.7-2.5-.7.8.4 1.7.4 2.5.7m-76.5 1c-1.55-.3-.63-1.2-.52-1.5.3.1 1.31 1.1.52 1.5m82.3 0c-1.6-.5.9-2.3.8-.8-.1.3-.4.8-.8.8m.1-.7c1.4-.8-.9-.3 0 0m-61-14c-6 2.1-1.1-11.8 10.3-9.33 3.8.41 6.9 3.34 8.6 6.57.8-1.67-1.8-4-.5-5.9.8-2.14 2.8.37 2.3 1.7.1 1.45-1.2 3.06-1.1 4.2 1.1-.14 1.3-2.19 2.4-2.84 3.1-3.83 8.6-4.58 13-3.45 3.3 1.11 6.8 3.99 6.5 7.89-.7 1.86-4 1.66-3.6-.63.8-1.91 3.6 1.25 2.7-1.28-.7-3.6-4.6-5.38-7.8-6.09-3.9-.181-8.1.94-10.8 3.92.8-.16 2.3-2.08 3.8-2.14 3.4-.56 8.1-.77 9.8 2.95.7 1.86-1 5.23-3.2 3.62-1.9-.76.6-3.65.9-1.49-1.5-1.28-1.2 2 .5 1.38 2.1-1.17 1.8-4.55-.5-5.43-2.6-1.38-6-1.15-8.7-.15-1.7 1.28-3.7 2.46-4.3 4.6 1.2.06 2-2.25 3.7-1.24 1.8.56-1.1 1.97-2 1.98-1.5.18-2.5-.71-3.6-.27-1.3.69-3.2.01-4-.78 1.5.47 2.1.65 2.1-.06 1.8.33-1.8-1.65-2.2-.05-.2-1.46 2.6-1.22 3.3-.15 1.2 2.17.7-1.7-.8-2.08-2-2.18-4.9-3.21-7.8-2.69-2.4-.19-5.9 1.61-5.3 4.52.1 1.6 2.5 2.52 3 .82-.4-.75-2.1-.97.2-1.07 1.4 1.95-2.1 3.67-3.1 1.7-1.4-1.83-.6-4.3 1.4-5.28 2.2-1.56 5.2-1.25 7.8-.92 1.3.28 2.7 1.57 3.6 2.03-2.6-2.81-6.7-4.08-10.5-3.63-3.2.51-6.6 2.43-7.8 5.59-1 2.79 1.1.22 2.4 1.47.5.78.1 1.91-.8 2.01zm-.8-.58c2.4.01-.2-2.38-.5-.46.1.2 0 .7.5.46m40.5-.11c2.3-1.56-2.9-1.36 0 0m-17.5-1.11c2.1.07 2.4-1.46.2-.83-.5.55-1.7 1.01-.2.83m-2.4-3.29c.6-1.25 1.1-3.49-.6-4.04-1.3 1.35-.5 3.46.2 4.86.1-.28.2-.56.4-.84zm-7.5.72c-2.3-1.3 2.4-1.13 0 0m14.1 0c-1.9-.97 2.2-1.15.1 0zm-10.2-4.4c-2.3-.42.9-2.66.4-.43-.2.09-.1.44-.4.43"/><path d="M54.084 1.407c2.3-.427-.9-2.66-.4-.435.2.095.1.445.4.435"/></g><g fill="#f39b8e"><path d="M25.084 90.497c-.1-.1-.4-.1-.5-.1h-.4l-.4-.4v-.7c0-.4 0-.9.1-1.1.1-.6.2-.6-.2-.5h-.4l-1.2-.6-.2-.3c-.2-.3-.2-1 0-1.1.4-.1.1-.8.1-.8l.7-.5h1.9l-.5-.9-.1-.6c0-.3 0-.8.1-1l.1-.4.7-.1.1-.4c.3-.7.9-.7 1.7 0l.5.4.2.7c.2.7.3.8.6.6.1-.1.4-.3.7-.3l.6-.1.3.1c.7.2.9.3.9.9 0 .1.1.3.2.5l.1.3-.1.7-.4.4c-.1.2-.4.4-.6.6l-.2.2h.1c.4.2.8.7.9 1.1l.2.5-.1.4c0 .2-.1.4-.2.4l-.2.1.2.6-.2.2c-.1.1-.4.2-.6.3l-.4.1-1.2-.4-.9-.9-.1.6c-.2 1.1-1.2 1.9-1.9 1.5m.8-.6c.4-.2.6-.6.6-1.3v-.5l-.2-.6c-.2-.4-.3-.7-.3-.8-.3-.3-1.7 1.4-1.8 2.2v.5l.2.5.6-.4.2.3c.2.3.2.3.7.1m3.5-1.3v-.4h.1c.1 0 .3-.1.4-.2l.3-.3-.2-.3c-.3-.9-1.2-1.3-2.4-1.2l-.7.1v.4c0 .5.2 1 1 1.6.9.9 1.4 1 1.4.3zm-4.6-1.9c.3-.1.6-.2.7-.2.3 0 .6-.3.6-.6v-.2h-.3c-.1-.1-.3-.2-.4-.3l-.2-.3-1.3-.3h-.6c-.2.1-.5.2-.6.3l-.1.1.4.5h-.2c0 .1-.1.1-.1.2v.2l-.2-.1c-.5-.1 0 .6.6.9l.4.2.5-.1c.2 0 .6-.1.8-.3m2.5-.8c.1-.1.5-.3.8-.3.3-.1.7-.2 1-.3l.6-.2.1-.3c.1-.2.1-.5.1-.7v-.4h-.3v-.3c0-.1-.1-.3-.1-.4l-.2-.2-1 .1-.3.4c-.3.4-.7 1.2-.9 1.7v.3l-.7.4.2.2c.4.2.3.2.7 0m-.5-1.3c.3-.8.4-1.5.3-2l-.1-.5-.5-.4c-.6-.6-.7-.6-.8-.1l-.1.5-.8-.1v.9c.1.9.1 1.2.7 1.8l.4.5h.3c.4.1.4.1.6-.6m47.4 5.7c-.4-.3-.7-.8-.9-1.7l-.1-.5-.6 1.1-.6.2c-.8.3-1.2.3-1.7 0l-.3-.2v-.2c0-.1-.1-.4-.2-.5l-.2-.3v-.4c0-.6.2-1.2.7-1.5l.4-.3-.2-.1c-1-.5-1.4-1.4-1-2.1l.2-.2v-.7l.3-.2c.2-.2.5-.3.8-.4h.4l.4.2c.3 0 .6.3.8.5l.3.3v-.6c0-1.1.3-1.6 1.1-2l.4-.1.5.4.6-.1.6.4.4 1.2-.2.7c-.1.3-.3.8-.4 1-.2.2-.3.4-.3.4s.2-.1.5-.2c.2-.1.6-.2.9-.2h.6l.3.3c.5.2.3.9.7 1.1.3.2-.2 1.3-.8 1.7l-.3.3h-.6c-.6 0-.6 0-.4.4l.2.3v1.6l-.3.3c-.1.1-.4.2-.5.2s-.4 0-.6.1h-.5zm.9-.5c0-.3.2-.3.4-.1 0 0 .1.1.2.1h.2l.1-.3c.1-.3.1-.7-.2-1.2-.2-.5-.2-.5-1-1.2-.6-.5-.7-.7-.3-.7h.2l.2-.5h.1c.1.1.3.1.3.1.1 0 .1.1.1.2v.2h-.2c-.2 0-.1.2.3.4s1.2.2 1.6 0c.2-.1.4-.2.5-.3.1 0 .2-.1.3-.2l.1-.2-.6-.6.3-.4-.1-.1c-.1-.1-.4-.1-.7-.2h-.6l-.7.3c-.4.2-.8.4-.9.5s-.2.2-.4.2c-.3 0-.3.1-.4 1.6l-.1 1.4.1.3c.3.7 1 1.1 1.2.7m-3.4-.9c.3-.1.6-.4.8-.5l.4-.3.7-1.5v-.3c-.1-.1-.1-.4-.2-.5 0-.2-.2-.5-.2-.7-.3-1.1-1.2-2-2.1-2.2l-.5-.1-.3.3.3.6-.1.1c-.1 0-.2.1-.3.2-.4.1-.2.8.3 1.3l.2.2 1.2.3.5-.1c.3 0 .5-.1.6-.1l.2-.1.1.6c-.1 0-.3.2-.3.2l-.8.1c-1.3.1-1.8.4-2.1 1.1l-.1.3.1.2c.1.2.2.3.4.3l.2.1v.2c0 .3 0 .4.3.4.1.1.2.1.2.1.1 0 .3-.1.5-.2m2.9-4.2c1.1-1.4 1.3-4 .2-2.9l-.3.2-.2-.3c-.5-.6-.9-.4-1 .6l-.1.5.2.9c.4 1.9.5 1.9 1.2 1m-68.7-18.5c-.07-.1-.23-.2-.36-.2-.14-.1-.31-.2-.38-.3l-.14-.3.04-.8c.03-.4.08-.8.12-1l.08-.2-.38.1c-1.11.1-2.07-.5-1.86-1.3l.1-.3-.43-.6.16-.3c.09-.1.3-.4.45-.5l.29-.2h.63c.35 0 .78 0 .96.1l.32.1-.17-.2c-.09 0-.3-.4-.47-.6l-.3-.6-.02-1.9.52-.5.66.1.14-.2c.28-.3 1.12 0 1.64.6l.27.3.13.6c.07.3.11.8.08 1-.05.5 0 .5.37 0 .36-.5 1.09-.8 1.64-.9h.41l.7.5v.3c0 .2 0 .4.1.4.2 0 .5.4.5.6 0 .4-.4 1.1-.9 1.5l-.5.5h.1c.4.2.9.6 1.1 1l.2.4v1.2l-.5.5-.4-.1-.3.8-.3-.1c-.57-.2-1.21-.6-1.64-1l-.46-.5-.04.2c-.03.1-.08.3-.11.5l-.08.5-.83.8-.64-.1-.12.2c-.15.2-.23.1-.38-.1m1.53-1.1c.21-.5.18-1.4-.05-2.1-.24-.7-.21-.7-.65-.5l-.37.2-.83 1.3-.1 1.1.28.4.64-.1.28.2.66-.2zm2.87-.4c.1-.1.3-.2.4-.2.3 0 .4-.2.4-.8v-.5l-.8-.8-.52-.1c-.47-.1-.88-.1-1.27.1h-.19l.05-.2.05-.3h-.51v.1c0 .1.07.2.16.3.08.1.13.2.09.2-.03.1.07.4.23.6.15.3.26.6.23.7-.12.3.76 1.2 1.21 1.2.09 0 .27-.1.47-.3m-4.98-2.1c.25-.1.56-.3.69-.4l.24-.2.59.1v-.2s.07-.2.16-.2c.26-.3.19-.3-.26-.3l-.41.1-1.39-.7-1.27.1-.45.4.59.5-.28.8.19.1c.28.2 1.09.2 1.62-.1zm5.08-1.3c.4-.2.6-.5.7-1.1l.1-.4h-.3c-.2 0-.5-.1-.5-.1l-.1-.2.1-.2c0-.1.1-.3.1-.3v-.2h-.4c-.64 0-1.31.5-1.66 1.2l-.13.3c-.04 0-.92.8-.92.8l-.07.1c-.14.2.06.3 1.34.3h1.31zm-3.2-.8c.04-.2.1-.8.13-1.3l.07-.8-.12-.4c-.13-.5-.6-1.1-.75-1-.05.1-.12.3-.16.5l-.07.5h-.15c-.2.1-.5-.1-.41-.3.03 0 0-.1-.08-.2-.21-.1-.27-.1-.46.1l-.17.2v1.3l.23.4c.24.4 1.54 1.5 1.75 1.5h.13zm86.3 5.8c-.1 0-.4-.2-.6-.4l-.4-.4-.1-.5c-.2-.5-.1-.5-.5-.1-.4.5-.9.8-1.4.8h-.3l-.1-.2v-.6l-.2.1c-.1 0-.2 0-.3.1h-.2l-.5-.5-.1-1.2.2-.4c.1-.4.9-1.1 1.1-1.1.3 0 .2-.2-.2-.3h-.3l-.9-1v-.9l.2-.2c.1-.1.3-.2.3-.2.1 0 .1-.2.1-.3v-.3l.4-.2c.8-.3 1.7 0 2.3.7l.3.3.1-1.5.5-.9.9-.5h.2c.2.1.3.1.3.2h.8l.3.1.3.6v1.4l-.8 1.5 1.1-.2.4.2c.5.1.9.4 1.1.8l.1.1-.2.4c0 .2-.1.5-.1.8v.4l-.2.2c-.2.1-.5.2-.8.3-.4.1-.6.1-1.2-.1h-.2l.5 1-.1.7c0 .3-.1.7-.1.9l-.2.2h-.5c-.3 0-.5.1-.5.1 0 .1-.2.2-.5.2zm.4-.7.1-.3h.3c.1 0 .2.1.2.1 0 .3.3.1.4-.1.1-.6-.8-2.7-1.2-2.7-.2 0-.7.8-.9 1.2l-.1.3.3 1.1.3.3c.1.2.3.4.4.4h.2zm-2.6-.7.3-.2.5-.9c.5-.9.6-1.3.4-1.6l-.1-.1h-1.7l-.3.1c-.2.1-.4.3-.6.5l-.3.4-.1.4c0 .2 0 .5.1.7l.1.3.7-.1.2.3c.4.5.4.5.8.2m5.2-2.2.2-.1-.3-.8.6-.5-.5-.5h-1.6l-1 .7v.2c0 .6 2 1.5 2.6 1m-4.1-1.4c.1 0-.4-1.2-.4-1.2l-.2-.2c-.1-.2-.4-.5-.6-.6l-.4-.3-.9-.2.2 1h-.9v.7l.2.2c.5.4 1.3.7 2.5.7h.6zm1.7-.9c.3-.2.6-.6.7-.9l.3-.5.1-1.4-.3-.2-.2.3c-.3.3-.8.1-.8-.3 0 0-.1-.1-.2-.1h-.2l-.7 1v.5c0 .6.3 1.7.5 2 .1.2.3.1.8-.4m-71.4-44.4c-.8 0-.9-.1-1.2-.8l-.1-.5v-.5c.1-.3.1-.6.2-.7v-.3l-.4.2c-1 .4-2.2-.1-2-.8l.1-.1-.6-.7.1-.4c0-.2.1-.5.2-.7l.2-.2h.8c.9.1 1 0 .6-.3l-.3-.26-.2-1.06.2-1.08.4-.1c.2-.06.5-.2.7-.33l.2-.23.3.07c.4.13.9.62 1.1 1.09.2.58.3.58.5.04.1-.24.3-.54.5-.67l.3-.23.9-.02.2.19c0 .1.2.19.3.19h.2l.2.28c.2.35.3 1.31.2 1.69-.1.23-.4.53-1.1 1.03l-.2.1h.4c.2-.1.6 0 .9 0l.4.1.5.7v.3c0 .2.1.4.1.5.1.1.1.5-.1.5l-.2.4c-.1.5-.4.6-1.1.6h-.6l-.9-.5v1.4l-.1.3c-.4.7-.7.9-1.6.8m1.1-1.1c.2-.8.1-1.8-.3-2.3l-.2-.3-.1.2-.6.5-.4.5c-.1.3-.3.6-.3.7 0 .6.1.8.3 1.1l.3.2.5-.3.3.4.2-.2c.1 0 .3-.3.3-.5m2.5-1.6.3-.2-.1-.7.2-.2c.3-.3-.1-.7-1-.8l-.6-.2-1.1.5v.2c.2.7.9 1.5 1.6 1.6h.4s.2-.1.3-.2m-5-.5c.6-.3 1.2-.8 1.1-1 0-.2-1.9-.9-2.5-.9h-.4l-.2.3c-.3.4-.3.4.1.7l.3.2v.4c0 .2.1.4.1.4 0 .1.2.1.5.1h.5zm1.5-2.1.1-.2-.1-.63c-.1-1.38-.9-2.55-1.2-1.78l-.1.27h-.9v.19c0 .35 0 .62.2 1.09l.2.46.6.4c.8.5 1 .6 1.2.2m2-.4c1-.48 1.3-.93.9-1.68-.1-.31-.2-.33-.4-.14l-.1.13-.2-.7h-.2c-.2 0-.9.68-1.1 1.13l-.2.33-.1 1.63.3-.2c.2-.1.7-.3 1.1-.5m51.8 5.8-.2-.1-.7-.9v-.8c0-.8 0-.8-.4-.6l-.2.2h-1.4l-.3-.2c-.1-.1-.3-.5-.4-.7l-.1-.4.1-.2c.1-.1.1-.4.1-.6v-.3l.8-.7h1l-.3-.2c-.2-.1-.5-.3-.6-.6l-.3-.35v-.62c0-.34.1-.77.2-.95l.1-.32 1.1-.41.5.14c.4.15.7.42.9.9l.2.31.1-.24c.1-.13.3-.43.5-.66l.4-.42h.3c.1 0 .4.07.5.16l.3.17.5-.13.5.54v1.63l-.3.35c-.3.4-.3.4.2.4.2-.1.5-.1.7 0l.4.1.5.8-.1.4c0 .1-.1.3-.2.4l-.2.2.1.5-.5.6h-.6c-.3 0-.8 0-1-.1l-.4-.1.4 1.1-.2 1-.5.6h-.5c-.3 0-.6 0-.6.1zm1.5-.8.1-.3v-.5c0-.2-.2-.7-.3-.9l-.2-.4-.8-.5v-.3c0-.1 0-.3-.1-.3-.1-.1-.3.1-.5.9-.3 1.6-.3 1.7.1 2.2.3.3.5.4.5.2 0-.1.1-.2.2-.3h.2l.2.2c.2.4.4.3.6 0m-3.3-2 .5-.2.6-.6v-.7h-.2c-.1-.1-.3-.2-.5-.3-.2 0-.5-.1-.7-.1h-.5l-.3.2q-.6.45-.3.6l.2.1-.1.3c-.1.6.4 1.3.7 1 0-.1.3-.2.6-.3m5.4-.5.1-.3-.2-.3.7-.7-.4-.5-1.3-.1-.7.3c-.3.1-.7.3-.8.5l-.3.2.3.1c.1.1.4.3.5.4.4.4 1 .6 1.5.6h.4zm-1.8-2.3c.1-.1.4-.4.6-.61l.3-.45.1-1.13-.2.09c-.1.04-.3.11-.4.14l-.2.05-.3-.33c-.3-.46-.4-.45-.8.32l-.5.67v.49c0 .26.1.66.2.86l.1.4.4-.1c.2-.1.5-.3.7-.4m-2.2.2c.1-.3.1-1.1-.1-1.68l-.1-.56-.7-.54-.2.18c-.1.1-.3.17-.4.15-.2-.04-.3.11-.4.67l-.1.43.1.25c.1.14.4.4.7.6.3.1.6.4.6.5.2.2.5.2.6 0"/><path d="M74.584 87.597c-1.2-.2.8-.9 0 0M74.184 84.697c-1.2-.2.8-.9 0 0M72.784 85.297c-1.2-.2.8-.9 0 0m.1 1.6c-1.2-.2.7-.9 0 0M25.184 85.997c-1.1-.2.8-.9 0 0m2.6-.6c-1.1-.2.8-1 0 0m-.3 1.6c-1.1-.3.8-1 0 0m-1.2-2.2c-1.2-.3.7-1 0 0m-.4 3c-1.2-.2.8-.9 0 0m-19-24.4c-1.15-.2.76-.9 0 0m.13-3c-1.15-.2.76-.9 0 0m1.86 2.5c-1.15-.2.76-.9 0 0m-2.94-1c-1.15-.2.76-.9 0 0m16.2-49.9c-1.1-.2.8-.9 0 0m1.9-1.4c-1.2-.2.7-.95 0 0m.8 1.7c-1.2-.2.7-1 0 0m-2-1.8c-1.2-.2.7-.93 0 0m.6 2.6c-1.2-.2.7-.9 0 0m52.3-.9c-1.2-.3.8-1 0 0m2.1-1.6c-1.1-.2.8-.91 0 0m.8 1.7c-1.1-.2.8-.9 0 0m-2.3-1.7c-1.2-.2.8-.88 0 0m.6 2.7c-1.1-.2.8-.9 0 0m15.3 49.4c-1.1-.2.8-.9 0 0m1.4-2.2c-1.1-.2.8-.9 0 0m1 1.4c-1.2-.2.7-.9 0 0m-2.7-.7c-1.2-.2.7-.9 0 0m1.9 2.2c-1.1-.2.8-.9 0 0m-85.4-2.2c-1.15-.2.76-.9 0 0"/></g></g><path fill="#cc9553" d="M6.14 48.7c.63-1.2-.86-3-1.82-3.8-1.34-.7-3.16-.4-2.33 1.4.34 1.7 2.17 1.8 3.54 2 .23.1.32.5.61.4m-.5-.8c-1.31-.5-3.23-.3-3.38-2.4.23-1.2 2.81.2 3.13 1.2-.01.3.57 1.1.25 1.2"/></svg>